<?xml version="1.0" standalone="no"?>
<!DOCTYPE svg PUBLIC "-//W3C//DTD SVG 20010904//EN"
 "http://www.w3.org/TR/2001/REC-SVG-20010904/DTD/svg10.dtd">
<svg version="1.0" xmlns="http://www.w3.org/2000/svg"
 width="512.000000pt" height="512.000000pt" viewBox="0 0 512.000000 512.000000"
 preserveAspectRatio="xMidYMid meet">
<metadata>
Created by potrace 1.11, written by Peter Selinger 2001-2013
</metadata>
<g transform="translate(0.000000,512.000000) scale(0.100000,-0.100000)"
fill="#000000" stroke="none">
<path d="M0 2560 l0 -2560 2560 0 2560 0 0 2560 0 2560 -2560 0 -2560 0 0
-2560z m1985 676 c200 -61 330 -167 410 -331 44 -92 64 -176 72 -306 23 -398
-173 -694 -523 -791 -74 -20 -106 -22 -471 -26 l-393 -4 0 747 0 746 408 -3
407 -4 90 -28z m1715 -116 l0 -150 -365 0 -365 0 0 -145 0 -145 330 0 330 0 0
-150 0 -150 -330 0 -330 0 0 -300 0 -300 -195 0 -195 0 0 745 0 745 560 0 560
0 0 -150z m379 63 c-1 -49 -6 -281 -13 -518 l-11 -430 -147 -3 -146 -3 -6 53
c-3 29 -8 190 -11 358 -3 168 -8 378 -12 468 l-6 162 177 0 176 0 -1 -87z
m-79 -1068 c123 -64 133 -256 17 -333 -34 -23 -51 -27 -112 -27 -59 0 -78 4
-107 24 -77 53 -107 149 -74 235 19 51 73 103 114 112 15 3 32 7 37 9 17 7 99
-6 125 -20z"/>
<path d="M1472 2529 l3 -444 85 -3 c122 -4 240 12 298 42 96 48 164 150 194
289 16 77 5 261 -19 324 -40 100 -112 175 -204 209 -31 12 -90 18 -202 22
l-157 4 2 -443z"/>
</g>
</svg>
